<svg xmlns="http://www.w3.org/2000/svg" xmlns:xlink="http://www.w3.org/1999/xlink" width="500px" height="500px" viewBox="0 0 1200 1200">
    <g id="28d071c4-b902-4bc8-8755-f3738fe5347f">
<g style="">
		<g id="28d071c4-b902-4bc8-8755-f3738fe5347f-child-0">
<path style="stroke: rgb(193,193,193); stroke-opacity: 1.00; stroke-width: 0; stroke-dasharray: none; stroke-linecap: butt; stroke-dashoffset: 0; stroke-linejoin: miter; stroke-miterlimit: 4; fill: rgb(14,54,99); fill-opacity: 1.00; fill-rule: nonzero; opacity: 1;" transform="matrix(1.612367 0 0 1.612367 634.384589 675.63701) matrix(1 0 0 1 0 0)  translate(-190.933, -195.22357)" d="M 134.30 168.16 L 184.85 168.16 L 184.85 274.85 C 184.45 274.89 184.17 275.02 184.02 274.93 C 168.16 265.30 153.33 254.51 143.13 238.53 C 137.25 229.31 133.94 219.38 134.10 208.30 C 134.28 196.01 134.12 183.72 134.12 171.43 C 134.12 170.44 134.23 169.44 134.30 168.16 Z M 247.75 171.43 C 247.75 170.44 247.64 169.44 247.56 168.16 L 197.02 168.16 L 197.02 274.85 C 197.42 274.89 197.70 275.02 197.85 274.93 C 213.70 265.30 228.53 254.51 238.74 238.53 C 244.62 229.31 247.92 219.38 247.76 208.30 C 247.58 196.01 247.75 183.72 247.75 171.43 Z M 190.63 116.63 C 190.74 116.63 190.83 116.60 190.93 116.60 C 191.03 116.60 191.13 116.63 191.23 116.63 C 197.50 116.60 202.58 111.41 202.57 105.03 C 202.57 105.01 202.56 104.99 202.56 104.97 C 202.56 104.95 202.57 104.93 202.57 104.91 C 202.57 99.12 198.51 94.30 193.17 93.25 C 193.13 93.24 193.09 93.24 193.05 93.23 C 192.40 93.12 191.75 93.02 191.08 93.02 C 191.03 93.02 190.98 93.03 190.93 93.03 C 190.88 93.03 190.84 93.02 190.79 93.02 C 190.11 93.02 189.46 93.11 188.82 93.23 C 188.78 93.24 188.73 93.24 188.69 93.25 C 183.35 94.30 179.29 99.12 179.30 104.91 C 179.30 104.93 179.30 104.95 179.30 104.97 C 179.30 104.99 179.30 105.01 179.30 105.03 C 179.29 111.41 184.36 116.60 190.63 116.63 Z M 381.87 78.39 C 381.15 79.03 380.33 79.79 379.48 80.53 C 360.80 96.68 350.38 116.70 349.80 141.77 C 349.33 161.78 348.04 181.75 344.68 201.56 C 337.25 245.40 318.56 283.83 289.73 317.44 C 263.11 348.49 230.73 371.94 194.03 389.68 C 193.00 390.18 192.06 390.38 191.12 390.41 L 191.12 390.45 C 191.06 390.45 190.99 390.43 190.93 390.43 C 190.87 390.43 190.81 390.45 190.75 390.45 L 190.75 390.41 C 189.81 390.39 188.87 390.18 187.84 389.68 C 151.14 371.94 118.76 348.49 92.14 317.44 C 63.31 283.83 44.61 245.40 37.19 201.56 C 33.83 181.75 32.54 161.78 32.07 141.77 C 31.49 116.70 21.07 96.68 2.39 80.53 C 1.54 79.79 0.71 79.03 0.00 78.39 C 10.05 74.96 20.16 72.16 29.74 68.12 C 50.81 59.24 69.16 46.45 83.21 28.08 C 85.48 25.11 87.21 21.74 89.44 18.73 C 90.06 17.89 91.69 17.04 92.61 17.26 C 126.81 25.25 158.44 18.25 188.28 0.92 C 189.19 0.39 189.97 0.10 190.75 -0.00 L 191.12 -0.00 C 191.90 0.10 192.68 0.39 193.59 0.92 C 223.43 18.25 255.05 25.25 289.25 17.26 C 290.18 17.04 291.80 17.89 292.43 18.73 C 294.65 21.74 296.39 25.11 298.66 28.08 C 312.70 46.45 331.06 59.24 352.13 68.12 C 361.71 72.16 371.81 74.96 381.87 78.39 Z M 168.99 104.66 C 168.90 116.48 178.93 126.81 190.65 126.98 C 190.68 126.98 190.72 126.98 190.75 126.98 L 190.75 126.96 C 190.81 126.96 190.87 126.97 190.93 126.97 C 190.99 126.97 191.05 126.96 191.12 126.96 L 191.12 126.98 C 191.15 126.98 191.18 126.98 191.21 126.98 C 202.94 126.81 212.96 116.48 212.88 104.66 C 212.79 92.67 202.81 82.68 190.93 82.59 C 179.05 82.68 169.07 92.67 168.99 104.66 Z M 259.00 160.23 C 259.00 159.23 258.85 158.23 258.76 157.09 L 123.10 157.09 C 123.01 158.23 122.87 159.23 122.87 160.23 C 122.86 175.49 122.85 190.74 122.87 205.99 C 122.90 223.64 128.71 239.23 139.91 252.77 C 153.43 269.10 170.75 280.54 189.27 290.34 C 189.71 290.57 190.32 290.65 190.93 290.65 C 191.55 290.66 192.16 290.57 192.60 290.34 C 211.11 280.54 228.43 269.10 241.95 252.77 C 253.15 239.23 258.97 223.64 258.99 205.99 C 259.01 190.74 259.01 175.49 259.00 160.23 Z" stroke-linecap="round"></path>
</g>
</g>
</g>
<g style="" id="dd3b06f2-e1c3-4917-9b66-ee0bd9658a5b">
<g style=""><path d="M-338.05848 170.59794Q-345.98108 173.79910 -352.48500 172.91959Q-359.02172 171.95375 -362.79513 167.29703Q-366.57928 162.61014 -366.57928 155.11150L-366.57928 137.49842L-349.22893 131.12470L-344.84627 129.40377L-344.84627 132.19396L-347.92881 138.81496L-347.92881 146.31360Q-347.92881 150.49888 -344.92729 152.10629Q-341.93280 153.69603 -337.41391 151.84629Q-332.75046 149.88988 -330.26490 145.51436Q-327.78417 141.12762 -327.78417 135.54723L-327.78417 50.27202L-332.75046 47.00158L-332.75046 44.21139L-325.70726 41.16705L-310.78812 34.37626L-303.86228 31.07362L-303.86228 33.86381L-308.73813 41.60448L-308.73813 123.39196Q-308.73813 139.95872 -316.32317 152.30542Q-323.95250 164.55563 -338.05848 170.59794Z" fill="rgb(64,64,64)" fill-opacity="1.00" transform="matrix(1.397524 0 0 1.397524 636.118889 283.339262) translate(1.178841557702981e-8 -37.44593788533645)"></path><path d="M-256.71750 130.62831Q-265.42955 135.41415 -271.72049 134.88816Q-278.03402 134.32001 -281.35441 128.38835Q-284.68177 122.44335 -284.68177 111.45697L-284.68177 29.66949L-289.49209 26.73039L-289.49209 23.94020L-282.66904 20.43008L-268.18877 12.74725L-261.45101 9.07604L-261.45101 11.86624L-266.19560 19.86330L-266.19560 101.65078Q-266.19560 109.32381 -263.43928 111.48400Q-260.68681 113.63713 -256.71750 111.44574Q-252.75532 109.24146 -250.01617 104.04631Q-247.27999 98.84587 -247.27999 91.17285L-247.27999 9.38537L-251.99414 6.62542L-251.99414 3.83523L-245.30559 0.07510L-231.06524 -8.04408L-224.41580 -11.87295L-224.41580 -9.08276L-229.09982 -0.97774L-229.09982 80.80974Q-229.09982 91.79611 -232.35075 101.33698Q-235.60402 110.87377 -241.81574 118.33797Q-248.03976 125.78051 -256.71750 130.62831Z" fill="rgb(64,64,64)" fill-opacity="1.00" transform="matrix(1.397524 0 0 1.397524 636.118889 283.339262) translate(1.178841557702981e-8 -37.44593788533645)"></path><path d="M-153.66265 62.03898L-148.87421 64.93589L-148.87421 67.72609L-174.64632 81.65623L-174.64632 78.86604L-171.90353 71.93354L-181.48839 37.01956L-186.79732 40.03094L-186.79732 80.31433L-182.09564 83.05218L-182.09564 85.84237L-209.62212 101.64149L-209.62212 98.85130L-204.94259 90.73850L-204.94259 -14.93999L-209.62212 -17.63918L-209.62212 -20.42937L-175.40757 -39.98946Q-168.24052 -43.96572 -162.88522 -43.31891Q-157.51230 -42.63964 -154.51047 -37.78503Q-151.50224 -32.91835 -151.50224 -24.37339L-151.50224 -7.98102Q-151.50224 1.61026 -155.12674 10.41096Q-158.74205 19.22897 -165.33543 25.93959ZM-186.79732 -14.37778L-186.79732 20.84838L-178.44994 16.12464Q-174.49404 13.90912 -172.20847 9.67230Q-169.92028 5.44020 -169.92028 0.20859L-169.92028 -12.69604Q-169.92028 -17.92765 -172.20847 -19.62471Q-174.49404 -21.31705 -178.44994 -19.10152Z" fill="rgb(64,64,64)" fill-opacity="1.00" transform="matrix(1.397524 0 0 1.397524 636.118889 283.339262) translate(1.178841557702981e-8 -37.44593788533645)"></path><path d="M-128.11400 57.38725L-135.02410 60.72267L-135.02410 57.93248L-130.16027 50.16688L-130.16027 -55.51161L-135.02410 -58.55800L-135.02410 -61.34819L-128.11400 -64.68362L-113.19369 -71.47108L-106.12986 -74.46710L-106.12986 -71.67690L-111.11215 -64.17302L-111.11215 41.50547L-106.12986 44.81358L-106.12986 47.60377L-113.19369 50.59979Z" fill="rgb(64,64,64)" fill-opacity="1.00" transform="matrix(1.397524 0 0 1.397524 636.118889 283.339262) translate(1.178841557702981e-8 -37.44593788533645)"></path><path d="M-57.16641 33.52429Q-71.81937 37.45061 -80.39233 31.58070Q-88.88769 25.94797 -89.54426 10.13993L-68.63724 -5.67417L-66.79028 -3.57648L-68.97268 4.88454Q-68.97268 11.16247 -65.86553 13.78211Q-62.74886 16.43656 -57.33600 15.07990Q-53.59912 14.21141 -51.12951 12.44768Q-48.65479 10.70777 -47.45831 8.02433Q-46.26070 5.34657 -46.26070 1.85883Q-46.26070 -4.07032 -50.61791 -9.28569Q-54.95941 -14.42717 -64.26626 -22.39952Q-71.65215 -28.34273 -76.24032 -32.78957Q-80.80653 -37.16610 -84.03096 -42.79988Q-87.24421 -48.40084 -87.24421 -55.37631Q-87.24421 -68.28095 -79.14865 -78.77506Q-70.98297 -89.05189 -57.67510 -92.60965Q-48.99643 -94.55176 -42.57545 -91.43060Q-36.12441 -88.14182 -32.75920 -81.21910Q-29.38742 -74.24879 -29.38742 -65.35506L-48.48393 -56.29174L-50.19142 -58.20441L-48.31305 -63.99957Q-48.31305 -68.88241 -51.12951 -72.47876Q-53.93934 -76.04428 -58.01409 -75.08894Q-62.24258 -74.02767 -64.68736 -70.67903Q-67.12634 -67.30881 -67.12634 -62.60036Q-67.12634 -56.84559 -63.00192 -52.11846Q-58.86112 -47.32889 -49.67942 -39.30374Q-41.80284 -32.27651 -36.90001 -27.07412Q-31.98165 -21.77201 -28.52187 -14.97540Q-25.05598 -8.12785 -25.05598 -0.45482Q-25.05598 12.62420 -34.14063 21.42802Q-43.17607 30.57447 -57.16641 33.52429Z" fill="rgb(64,64,64)" fill-opacity="1.00" transform="matrix(1.397524 0 0 1.397524 636.118889 283.339262) translate(1.178841557702981e-8 -37.44593788533645)"></path><path d="M55.26907 56.59547Q47.43989 54.84947 40.16232 50.65835Q32.84697 46.68018 27.74984 40.66624Q22.63904 34.76112 21.59808 27.67990Q12.73338 26.27097 6.37555 21.87256Q0.01183 17.65080 -3.30148 10.24545Q-6.61435 2.88885 -6.61435 -7.39998L-6.61435 -65.29644Q-6.61435 -76.28282 -2.86553 -84.01428Q0.88374 -91.68337 8.11821 -95.42508Q15.34336 -98.93907 25.41257 -97.99176Q35.43286 -96.62022 42.56404 -91.46460Q49.65772 -86.10863 53.31668 -77.61758Q56.96405 -69.07627 56.96405 -58.08989L56.96405 -0.19342Q56.96405 8.00276 54.92977 13.78995Q52.89181 19.59261 48.97574 23.08544Q45.04704 26.63747 39.38945 27.85203Q40.59150 31.02922 43.76331 33.53702Q46.92752 36.08437 49.99857 36.73372Q51.70134 37.11008 53.57153 37.01361Q55.43868 36.93027 57.64131 36.07166L59.83953 37.67228ZM25.41257 9.08183Q28.70125 9.48520 31.20714 8.42823Q33.70940 7.39717 35.08831 4.99320Q36.46602 2.59698 36.46602 -0.89076L36.46602 -65.76270Q36.46602 -69.25044 35.08831 -72.08583Q33.70940 -74.91347 31.20714 -76.67260Q28.70125 -78.40582 25.41257 -78.80919Q22.11862 -79.16700 19.60164 -78.01398Q17.08220 -76.83390 15.69121 -74.32507Q14.29961 -71.80791 14.29961 -68.32017L14.29961 -3.44822Q14.29961 0.03952 15.69121 2.75396Q17.08220 5.47674 19.60164 7.08685Q22.11862 8.72402 25.41257 9.08183Z" fill="rgb(64,64,64)" fill-opacity="1.00" transform="matrix(1.397524 0 0 1.397524 636.118889 283.339262) translate(1.178841557702981e-8 -37.44593788533645)"></path><path d="M109.89081 52.02373Q100.70545 48.22512 94.04273 41.70770Q87.33216 35.31677 83.79386 26.40370Q80.24222 17.52940 80.24222 6.54302L80.24222 -75.24445L75.09779 -82.31146L75.09779 -85.10165L82.39132 -82.71900L97.78619 -77.09206L104.90625 -74.23230L104.90625 -71.44211L99.89545 -68.06496L99.89545 13.72252Q99.89545 21.39554 102.80818 26.22773Q105.71197 31.08194 109.89081 32.84116Q114.05168 34.64246 116.92202 32.25085Q119.78416 29.87761 119.78416 22.20459L119.78416 -59.58289L114.84983 -67.19725L114.84983 -69.98745L121.84626 -66.83719L136.63946 -59.77650L143.49880 -56.33788L143.49880 -53.54769L138.67012 -50.57243L138.67012 31.21504Q138.67012 42.20142 135.30982 48.21140Q131.93974 54.24128 125.48459 55.09076Q118.98993 56.02460 109.89081 52.02373Z" fill="rgb(64,64,64)" fill-opacity="1.00" transform="matrix(1.397524 0 0 1.397524 636.118889 283.339262) translate(1.178841557702981e-8 -37.44593788533645)"></path><path d="M209.62026 77.59159L212.04125 78.97866L210.52813 102.70030L158.64948 73.63944L158.64948 70.84925L163.41051 68.00397L163.41051 -37.67452L158.64948 -45.64123L158.64948 -48.43142L207.50183 -21.10430L209.46894 4.78555L207.04787 3.39862L201.90203 -5.12714L181.73064 -16.57480L181.73064 10.80395L194.63223 18.10233L199.32818 15.37456L201.75065 16.75905L201.75065 46.75360L199.32818 45.36911L194.63223 37.28490L181.73064 29.98652L181.73064 67.13094L204.92922 80.31077Z" fill="rgb(64,64,64)" fill-opacity="1.00" transform="matrix(1.397524 0 0 1.397524 636.118889 283.339262) translate(1.178841557702981e-8 -37.44593788533645)"></path><path d="M282.27659 134.10945L287.09540 141.96568L287.09540 144.75587L261.14601 131.15868L261.14601 128.36849L263.90826 124.45349L254.25656 78.92184L248.91268 75.97292L248.91268 116.25630L253.64521 124.27531L253.64521 127.06550L225.96870 111.53108L225.96870 108.74089L230.66765 106.00784L230.66765 0.32935L225.96870 -7.74959L225.96870 -10.53978L260.37940 8.67240Q267.59743 12.55534 272.99085 18.98758Q278.40115 25.38771 281.42318 33.39919Q284.45097 41.39948 284.45097 49.94444L284.45097 66.33681Q284.45097 75.92809 280.80282 80.94948Q277.16296 85.95473 270.52326 85.60892ZM248.91268 21.56419L248.91268 56.79035L257.31579 61.41420Q261.29937 63.57957 263.60115 61.85766Q265.90566 60.13068 265.90566 54.89907L265.90566 41.99444Q265.90566 36.76283 263.60115 32.56065Q261.29937 28.35340 257.31579 26.18804Z" fill="rgb(64,64,64)" fill-opacity="1.00" transform="matrix(1.397524 0 0 1.397524 636.118889 283.339262) translate(1.178841557702981e-8 -37.44593788533645)"></path><path d="M322.72407 161.59257L315.71416 158.47235L315.71416 155.68216L320.64908 152.48323L320.64908 106.09631L299.76036 37.13573L294.90023 29.36248L294.90023 26.57229L322.72407 39.52170L322.72407 42.31190L319.37379 46.23913L330.25351 87.57706L341.22471 55.45551L337.82667 48.68405L337.82667 45.89386L366.57928 56.61903L366.57928 59.40922L361.46996 63.04906L339.92917 114.22950L339.92917 160.61642L344.95653 168.00995L344.95653 170.80014L337.82667 167.96472Z" fill="rgb(64,64,64)" fill-opacity="1.00" transform="matrix(1.397524 0 0 1.397524 636.118889 283.339262) translate(1.178841557702981e-8 -37.44593788533645)"></path></g></g>
<g style="" id="4abf5d1d-4140-4a14-9d7a-c608adec9fe2">
<g style=""><path d="M-268.14760 -0.01903L-271.02549 -8.04913L-293.17018 -0.11275L-294.76126 -4.55230L-272.61657 -12.48868L-275.46911 -20.44804L-271.86087 -21.74119L-264.53936 -1.31218Z" fill="rgb(64,64,64)" fill-opacity="1.00" transform="matrix(1.397524 0 0 1.397524 636.044019 945.160519) translate(-2.831893084476178e-7 -91.05828552364206)"></path><path d="M-278.24711 34.46772L-280.25477 30.17959L-269.24518 25.02499L-274.43165 13.94734L-285.44124 19.10194L-287.45687 14.79680L-262.68104 3.19696L-260.66541 7.50210L-270.97733 12.33006L-265.79086 23.40771L-255.47894 18.57976L-253.47128 22.86788Z" fill="rgb(64,64,64)" fill-opacity="1.00" transform="matrix(1.397524 0 0 1.397524 636.044019 945.160519) translate(-2.831893084476178e-7 -91.05828552364206)"></path><path d="M-255.11562 50.38953L-260.81544 40.70674L-268.06944 44.97684L-261.40693 56.29502L-264.67771 58.22038L-273.75168 42.80564L-250.17619 28.92781L-241.16894 44.22920L-244.47210 46.17363L-251.06788 34.96879L-257.57705 38.80045L-251.87723 48.48324Z" fill="rgb(64,64,64)" fill-opacity="1.00" transform="matrix(1.397524 0 0 1.397524 636.044019 945.160519) translate(-2.831893084476178e-7 -91.05828552364206)"></path><path d="M-234.41912 80.63819L-241.12301 71.90399L-250.31927 78.96252L-253.21361 75.19161L-231.51223 58.53484L-220.93015 72.32177L-223.97073 74.65555L-231.65847 64.63953L-238.11224 69.59309L-231.40835 78.32730Z" fill="rgb(64,64,64)" fill-opacity="1.00" transform="matrix(1.397524 0 0 1.397524 636.044019 945.160519) translate(-2.831893084476178e-7 -91.05828552364206)"></path><path d="M-204.15308 91.15425L-217.67575 103.45708Q-220.90007 106.39054 -224.66090 106.03999Q-228.42174 105.68945 -231.54486 102.25666Q-234.70592 98.78218 -234.70925 95.05119Q-234.71258 91.32019 -231.41877 88.32351L-217.91000 76.03332L-214.72365 79.53559L-228.26022 91.85107Q-230.28932 93.69713 -230.42379 95.69918Q-230.55825 97.70123 -228.73748 99.70253Q-225.04537 103.76072 -220.76481 99.86630L-207.33943 87.65198Z" fill="rgb(64,64,64)" fill-opacity="1.00" transform="matrix(1.397524 0 0 1.397524 636.044019 945.160519) translate(-2.831893084476178e-7 -91.05828552364206)"></path><path d="M-187.60907 111.85051L-193.89414 106.08313L-209.79889 123.41554L-213.27368 120.22697L-197.36893 102.89456L-203.59863 97.17799L-201.00712 94.35386L-185.01756 109.02638Z" fill="rgb(64,64,64)" fill-opacity="1.00" transform="matrix(1.397524 0 0 1.397524 636.044019 945.160519) translate(-2.831893084476178e-7 -91.05828552364206)"></path><path d="M-165.30062 124.30627L-176.39767 138.83479Q-179.04362 142.29893 -182.80635 142.62854Q-186.56908 142.95814 -190.25720 140.14111Q-193.99012 137.28986 -194.66251 133.61995Q-195.33490 129.95004 -192.63192 126.41123L-181.54627 111.89765L-177.78349 114.77170L-188.89195 129.31515Q-190.55708 131.49518 -190.33032 133.48888Q-190.10356 135.48259 -187.95340 137.12491Q-183.59335 140.45516 -180.08061 135.85621L-169.06340 121.43221Z" fill="rgb(64,64,64)" fill-opacity="1.00" transform="matrix(1.397524 0 0 1.397524 636.044019 945.160519) translate(-2.831893084476178e-7 -91.05828552364206)"></path><path d="M-160.45283 147.50492L-164.94904 144.70165L-170.52575 153.64625L-174.55959 151.13126L-160.08599 127.91677L-151.92265 133.00638Q-147.90476 135.51143 -146.84372 138.67497Q-145.78268 141.83852 -147.90999 145.25054Q-149.36132 147.57836 -151.46453 148.44803Q-153.56774 149.31770 -156.10354 148.91021L-156.92382 161.83883L-157.05305 162.04610L-161.37388 159.35219ZM-162.93109 141.46502L-158.78564 144.04959Q-156.74481 145.32199 -154.95567 145.00933Q-153.16652 144.69667 -152.05317 142.91093Q-150.89011 141.04548 -151.31419 139.36401Q-151.73826 137.68254 -153.82299 136.33849L-158.08005 133.68433Z" fill="rgb(64,64,64)" fill-opacity="1.00" transform="matrix(1.397524 0 0 1.397524 636.044019 945.160519) translate(-2.831893084476178e-7 -91.05828552364206)"></path><path d="M-131.01403 161.91679L-141.01834 156.80228L-144.84995 164.29714L-133.15595 170.27548L-134.88360 173.65486L-150.81019 165.51269L-138.35746 141.15438L-122.54797 149.23668L-124.29273 152.64952L-135.86961 146.73105L-139.30780 153.45635L-129.30349 158.57087Z" fill="rgb(64,64,64)" fill-opacity="1.00" transform="matrix(1.397524 0 0 1.397524 636.044019 945.160519) translate(-2.831893084476178e-7 -91.05828552364206)"></path><path d="M-91.14112 177.06198Q-92.49727 180.84724 -94.82964 183.23492Q-97.16201 185.62260 -100.14228 186.28127Q-103.12256 186.93993 -106.28873 185.80558Q-109.41953 184.68391 -111.32117 182.27619Q-113.22281 179.86848 -113.54432 176.55992Q-113.86583 173.25137 -112.55905 169.54822L-112.03941 168.09780Q-110.68959 164.33023 -108.32119 161.92552Q-105.95278 159.52082 -102.97250 158.86215Q-99.99223 158.20349 -96.84374 159.33150Q-93.69526 160.45951 -91.80497 162.84320Q-89.91468 165.22689 -89.60519 168.54112Q-89.29569 171.85534 -90.62781 175.62925ZM-95.13459 174.11439Q-93.60100 169.83387 -94.40197 166.97226Q-95.20294 164.11064 -98.17454 163.04600Q-101.07539 162.00671 -103.52587 163.69345Q-105.97634 165.38018 -107.50094 169.52421L-108.03326 171.01001Q-109.55418 175.25516 -108.73051 178.16482Q-107.90683 181.07449 -104.97061 182.12645Q-101.99901 183.19109 -99.58708 181.50053Q-97.17515 179.80996 -95.61621 175.45869Z" fill="rgb(64,64,64)" fill-opacity="1.00" transform="matrix(1.397524 0 0 1.397524 636.044019 945.160519) translate(-2.831893084476178e-7 -91.05828552364206)"></path><path d="M-69.13150 184.36984L-79.79407 181.62425L-82.68491 192.85088L-87.28837 191.66549L-80.46656 165.17284L-63.63571 169.50675L-64.59152 173.21864L-76.81890 170.07011L-78.84764 177.94876L-68.18507 180.69435Z" fill="rgb(64,64,64)" fill-opacity="1.00" transform="matrix(1.397524 0 0 1.397524 636.044019 945.160519) translate(-2.831893084476178e-7 -91.05828552364206)"></path><path d="M-45.26853 196.72486L-32.95536 198.34700L-33.45108 202.10988L-50.47716 199.86685L-46.90402 172.74434L-42.19111 173.36522Z" fill="rgb(64,64,64)" fill-opacity="1.00" transform="matrix(1.397524 0 0 1.397524 636.044019 945.160519) translate(-2.831893084476178e-7 -91.05828552364206)"></path><path d="M-9.54003 191.40932L-20.76130 190.83706L-21.19002 199.24364L-8.07351 199.91254L-8.26682 203.70301L-26.13078 202.79199L-24.73746 175.47063L-7.00485 176.37495L-7.20007 180.20295L-20.18522 179.54073L-20.56991 187.08413L-9.34864 187.65639Z" fill="rgb(64,64,64)" fill-opacity="1.00" transform="matrix(1.397524 0 0 1.397524 636.044019 945.160519) translate(-2.831893084476178e-7 -91.05828552364206)"></path><path d="M20.20259 199.53458Q18.78654 201.52036 16.19235 202.60718Q13.59815 203.69399 10.25573 203.81045Q6.81942 203.93019 4.11746 202.46389Q1.41551 200.99760 -0.12207 198.14650Q-1.65964 195.29541 -1.85076 191.42917L-1.92534 189.28852Q-2.14126 183.09189 0.70425 179.50526Q3.54975 175.91863 8.86382 175.73347Q13.42679 175.57448 16.19051 177.73424Q18.95423 179.89400 19.64665 184.11877L14.98979 184.28103Q14.02905 179.36999 9.09053 179.54206Q5.89833 179.65329 4.31665 182.01146Q2.73498 184.36962 2.83371 188.82189L2.90699 190.92499Q3.06140 195.35652 5.01516 197.74190Q6.96892 200.12728 10.29257 200.01148Q13.93543 199.88455 15.41762 198.17846L15.23115 192.82683L9.59786 193.02311L9.47224 189.41780L19.83750 189.05664Z" fill="rgb(64,64,64)" fill-opacity="1.00" transform="matrix(1.397524 0 0 1.397524 636.044019 945.160519) translate(-2.831893084476178e-7 -91.05828552364206)"></path><path d="M43.74160 193.96695L33.23587 195.35499L31.87216 201.96001L26.97322 202.60727L33.63485 174.13251L37.86322 173.57385L51.71011 199.33897L46.79253 199.98870ZM34.05634 191.38031L41.91701 190.34174L36.50019 179.61021Z" fill="rgb(64,64,64)" fill-opacity="1.00" transform="matrix(1.397524 0 0 1.397524 636.044019 945.160519) translate(-2.831893084476178e-7 -91.05828552364206)"></path><path d="M62.28929 193.20772L74.40589 190.48127L75.23909 194.18407L58.48482 197.95408L52.47920 171.26456L57.11687 170.22100Z" fill="rgb(64,64,64)" fill-opacity="1.00" transform="matrix(1.397524 0 0 1.397524 636.044019 945.160519) translate(-2.831893084476178e-7 -91.05828552364206)"></path><path d="M99.20676 186.93757L94.71512 188.43553L86.06022 162.48383L90.55186 160.98587Z" fill="rgb(64,64,64)" fill-opacity="1.00" transform="matrix(1.397524 0 0 1.397524 636.044019 945.160519) translate(-2.831893084476178e-7 -91.05828552364206)"></path><path d="M128.21959 175.55486L123.83183 177.38367L105.10923 164.15972L112.57626 182.07497L108.18850 183.90378L97.66381 158.65247L102.05157 156.82366L120.83777 170.10253L113.34182 152.11791L117.69490 150.30355Z" fill="rgb(64,64,64)" fill-opacity="1.00" transform="matrix(1.397524 0 0 1.397524 636.044019 945.160519) translate(-2.831893084476178e-7 -91.05828552364206)"></path><path d="M142.69233 141.63218L135.15431 145.62506L146.16550 166.41273L141.99800 168.62024L130.98681 147.83257L123.51521 151.79026L121.72105 148.40314L140.89818 138.24505Z" fill="rgb(64,64,64)" fill-opacity="1.00" transform="matrix(1.397524 0 0 1.397524 636.044019 945.160519) translate(-2.831893084476178e-7 -91.05828552364206)"></path><path d="M166.80587 139.67431L157.37376 145.78003L161.94795 152.84622L172.97310 145.70926L175.03557 148.89536L160.01992 158.61551L145.15381 135.65039L160.05905 126.00171L162.14194 129.21935L151.22720 136.28484L155.33172 142.62548L164.76382 136.51976Z" fill="rgb(64,64,64)" fill-opacity="1.00" transform="matrix(1.397524 0 0 1.397524 636.044019 945.160519) translate(-2.831893084476178e-7 -91.05828552364206)"></path><path d="M182.67929 138.60188L192.52646 131.03361L194.83931 134.04289L181.22309 144.50794L164.55229 122.81734L168.32133 119.92055Z" fill="rgb(64,64,64)" fill-opacity="1.00" transform="matrix(1.397524 0 0 1.397524 636.044019 945.160519) translate(-2.831893084476178e-7 -91.05828552364206)"></path><path d="M201.46433 123.34203L210.68481 115.02167L213.22749 117.83942L200.47785 129.34443L182.15040 109.03427L185.67957 105.84962Z" fill="rgb(64,64,64)" fill-opacity="1.00" transform="matrix(1.397524 0 0 1.397524 636.044019 945.160519) translate(-2.831893084476178e-7 -91.05828552364206)"></path><path d="M221.77853 109.20399L218.45679 112.57813L198.96178 93.38589L202.28351 90.01175Z" fill="rgb(64,64,64)" fill-opacity="1.00" transform="matrix(1.397524 0 0 1.397524 636.044019 945.160519) translate(-2.831893084476178e-7 -91.05828552364206)"></path><path d="M239.28871 84.17681Q239.79573 86.56249 238.84396 89.20921Q237.89219 91.85594 235.71953 94.39855Q233.48583 97.01259 230.57919 98.01358Q227.67254 99.01458 224.53186 98.22151Q221.39117 97.42844 218.41197 94.95686L216.78356 93.56537Q212.06972 89.53740 211.34852 85.01626Q210.62732 80.49513 214.08161 76.45266Q217.04767 72.98156 220.50724 72.40362Q223.96682 71.82568 227.54906 74.16998L224.52197 77.71250Q220.25254 75.10227 217.04237 78.85905Q214.96735 81.28739 215.63695 84.04679Q216.30656 86.80618 219.65533 89.74186L221.25517 91.10893Q224.62628 93.98954 227.70488 94.16112Q230.78348 94.33271 232.94394 91.80438Q235.31190 89.03322 235.05577 86.78778L230.98473 83.30907L227.32294 87.59438L224.58034 85.25083L231.31805 77.36587Z" fill="rgb(64,64,64)" fill-opacity="1.00" transform="matrix(1.397524 0 0 1.397524 636.044019 945.160519) translate(-2.831893084476178e-7 -91.05828552364206)"></path><path d="M246.71378 59.16561L240.23855 68.34798L247.11765 73.19898L254.68652 62.46574L257.78825 64.65303L247.47988 79.27111L225.12280 63.50536L235.35538 48.99476L238.48783 51.20369L230.99476 61.82945L237.16753 66.18236L243.64275 56.99998Z" fill="rgb(64,64,64)" fill-opacity="1.00" transform="matrix(1.397524 0 0 1.397524 636.044019 945.160519) translate(-2.831893084476178e-7 -91.05828552364206)"></path><path d="M272.88896 39.47664L270.50276 43.58797L247.59505 44.39156L264.38164 54.13443L261.99544 58.24576L238.33497 44.51332L240.72117 40.40199L263.71274 39.60362L246.86115 29.82303L249.22849 25.74419Z" fill="rgb(64,64,64)" fill-opacity="1.00" transform="matrix(1.397524 0 0 1.397524 636.044019 945.160519) translate(-2.831893084476178e-7 -91.05828552364206)"></path><path d="M277.78510 8.32196Q281.59600 10.51592 282.65624 14.09799Q283.71647 17.68006 281.77371 21.93609Q280.41612 24.91018 277.97219 26.53125Q275.52826 28.15232 272.36844 28.19704Q269.20862 28.24176 265.74962 26.72479L263.42504 25.66368Q259.90399 24.05642 257.79003 21.58371Q255.67607 19.11101 255.28822 16.11469Q254.90036 13.11837 256.29696 10.05882Q258.17731 5.93953 261.56335 4.44902Q264.94940 2.95852 269.22176 4.41304L267.25559 8.72035Q264.43163 7.80306 262.67024 8.51710Q260.90884 9.23114 259.80093 11.65828Q258.51356 14.47854 259.88270 16.93140Q261.25185 19.38425 265.21880 21.23636L267.42373 22.24285Q271.45756 24.08418 274.23632 23.60734Q277.01508 23.13051 278.28684 20.34443Q279.44938 17.79765 278.88935 15.99296Q278.32932 14.18827 275.81894 12.62927Z" fill="rgb(64,64,64)" fill-opacity="1.00" transform="matrix(1.397524 0 0 1.397524 636.044019 945.160519) translate(-2.831893084476178e-7 -91.05828552364206)"></path><path d="M282.61146 -14.61953L278.87931 -4.02163L286.81888 -1.22564L291.18137 -13.61349L294.76126 -12.35280L288.81979 4.51878L263.01620 -4.56818L268.91399 -21.31570L272.52933 -20.04253L268.21052 -7.77873L275.33487 -5.26984L279.06701 -15.86774Z" fill="rgb(64,64,64)" fill-opacity="1.00" transform="matrix(1.397524 0 0 1.397524 636.044019 945.160519) translate(-2.831893084476178e-7 -91.05828552364206)"></path></g></g>

  </svg>